<svg xmlns="http://www.w3.org/2000/svg" xmlns:xlink="http://www.w3.org/1999/xlink" width="500" zoomAndPan="magnify" viewBox="0 0 375 374.999991" height="500" preserveAspectRatio="xMidYMid meet" version="1.0"><rect x="-37.5" width="450" fill="#ffffff" y="-37.499999" height="449.999989" fill-opacity="1"/><rect x="-37.5" width="450" fill="#ffffff" y="-37.499999" height="449.999989" fill-opacity="1"/><path fill="#ffffff" d="M 344.886719 129.335938 C 342.714844 124.667969 338.238281 121.238281 332.589844 119.929688 C 330.3125 119.394531 328.917969 117.386719 326.839844 114.140625 C 325.390625 111.882812 323.902344 109.554688 321.675781 107.683594 C 318.605469 105.097656 314.730469 103.734375 310.480469 103.734375 C 307.4375 103.734375 304.179688 104.4375 301.042969 105.773438 C 299.363281 106.492188 297.703125 107.371094 295.96875 108.457031 C 295.296875 108.222656 294.585938 108.019531 293.839844 107.855469 C 292.277344 107.519531 290.582031 107.34375 288.800781 107.34375 C 287.011719 107.34375 285.074219 107.511719 282.890625 107.863281 C 278.863281 108.503906 272.875 110.902344 269.746094 112.230469 L 269.675781 112.199219 C 248.339844 103.425781 223.671875 98.039062 198.269531 96.59375 C 194.242188 93.578125 190.359375 91.269531 186.984375 89.898438 C 182.261719 87.96875 177.21875 86.992188 171.992188 86.992188 C 164.015625 86.992188 156.214844 89.324219 149.78125 93.597656 C 143.273438 90.664062 135.789062 89.066406 128.429688 89.066406 C 122.699219 89.066406 117.09375 90.039062 112.21875 91.886719 C 101.082031 96.117188 92.09375 105.246094 87.886719 116.503906 C 70.527344 124.890625 56.054688 135.628906 45.945312 147.632812 C 34.488281 161.246094 28.4375 176.679688 28.4375 192.28125 C 28.4375 210.332031 36.417969 227.867188 51.519531 243 C 65.222656 256.710938 84.507812 268.140625 107.300781 276.0625 C 130.484375 284.113281 156.9375 288.367188 183.816406 288.367188 C 241.441406 288.367188 293.976562 268.882812 321.019531 237.5 C 321.300781 237.226562 325.175781 232.0625 325.175781 232.0625 C 328.917969 227.101562 331.800781 222.203125 333.984375 217.089844 C 340.730469 201.371094 340.851562 184.070312 334.292969 168.328125 C 335.097656 167.277344 335.851562 166.164062 336.574219 165.007812 C 338.167969 162.417969 339.457031 159.695312 340.410156 156.921875 C 341.441406 153.953125 342.113281 150.902344 342.394531 147.808594 C 342.675781 147.433594 342.96875 147.054688 343.210938 146.679688 C 343.921875 145.597656 344.539062 144.441406 345.007812 143.242188 C 346.910156 138.632812 346.859375 133.566406 344.886719 129.335938 Z M 344.886719 129.335938 " fill-opacity="1" fill-rule="nonzero"/><path fill="#003087" d="M 331.613281 123.84375 C 325.148438 122.347656 323.59375 114.617188 319.007812 110.761719 C 314.300781 106.792969 307.933594 107.171875 302.542969 109.472656 C 300.8125 110.214844 298.613281 111.382812 296.28125 113.039062 C 291.429688 110.574219 286.554688 111.40625 283.441406 111.835938 C 278.484375 112.515625 272.21875 115.117188 269.746094 116.472656 C 264.957031 119.09375 263.632812 121.859375 260.929688 123.453125 C 259.90625 124.050781 256.738281 125.871094 250.488281 126.875 C 241.867188 128.257812 235.777344 127.558594 231.585938 127.390625 C 219.265625 126.550781 206.257812 124.074219 201.84375 123.46875 C 199.613281 122.894531 193.019531 118.117188 187.867188 113.761719 C 180.15625 107.234375 178.066406 106.945312 174.585938 106.527344 C 161.628906 104.992188 156.039062 113.921875 156.015625 113.957031 C 156.015625 113.957031 149.945312 113.695312 146.453125 113.957031 C 139.027344 108.808594 129.796875 107.335938 122.277344 108.980469 C 118.46875 109.882812 114.953125 111.648438 112.1875 114.417969 C 112.132812 114.46875 109.089844 117.40625 107.421875 122.121094 C 107.359375 122.292969 105.273438 127.726562 106.230469 134.035156 C 95.660156 136.515625 90.714844 139.96875 89.664062 140.695312 C 87.046875 142.511719 85.808594 145.558594 85.425781 147.589844 C 84.847656 151.210938 86 155.140625 87.789062 158.480469 C 83.902344 158.972656 79.980469 159.960938 77.492188 161.003906 C 75.820312 161.777344 70.160156 164.492188 70.925781 172.132812 C 70.933594 172.199219 71.144531 175.546875 73.890625 182.710938 C 69.886719 184.734375 65.054688 189.035156 63.542969 190.496094 C 59.414062 194.507812 59.71875 199.289062 59.746094 199.632812 C 59.75 199.644531 59.75 199.65625 59.753906 199.664062 C 60.753906 207.300781 70.894531 215.6875 74.664062 218.125 C 79.109375 235.65625 96.078125 246.394531 107.71875 250.847656 C 108 250.953125 123.523438 257.472656 138.851562 256.015625 C 148.273438 262.042969 166.527344 261.316406 168.0625 261.324219 C 177.410156 261.371094 188.140625 259.179688 188.246094 259.160156 C 198.347656 257.34375 198.609375 255.371094 199.019531 253.253906 C 214.886719 254.757812 227.671875 251.339844 228.113281 251.234375 C 234.335938 249.769531 235.214844 248.308594 236.226562 246.722656 C 249.449219 247.757812 259.261719 245.816406 262.339844 245.023438 C 270.199219 242.996094 273.59375 240.015625 275.710938 237.578125 C 282.785156 237.515625 285.96875 237.625 288.191406 238.230469 C 294.699219 240.015625 302.289062 238.425781 304.539062 237.867188 C 311.472656 235.992188 318.671875 231.910156 324.988281 225.152344 C 326.988281 222.089844 328.757812 218.898438 330.21875 215.492188 C 336.546875 200.773438 336.613281 184.304688 330.378906 169.542969 C 330.125 168.925781 329.855469 168.316406 329.5625 167.707031 C 336.9375 158.984375 338.101562 150.050781 338.34375 147.179688 C 338.398438 146.503906 338.410156 146.273438 338.828125 145.746094 C 339.871094 144.402344 340.835938 142.671875 341.226562 141.714844 C 342.609375 138.316406 342.726562 134.394531 341.171875 131.03125 C 339.375 127.179688 335.660156 124.785156 331.613281 123.84375 Z M 331.613281 123.84375 " fill-opacity="1" fill-rule="nonzero"/><path fill="#fa4616" d="M 171.027344 94.320312 C 170.171875 94.347656 169.324219 94.417969 168.476562 94.507812 C 168.21875 94.535156 167.972656 94.570312 167.714844 94.605469 C 167.113281 94.679688 166.523438 94.769531 165.921875 94.875 C 165.644531 94.929688 165.363281 94.988281 165.074219 95.046875 C 164.496094 95.167969 163.917969 95.304688 163.335938 95.457031 C 163.089844 95.523438 162.84375 95.578125 162.597656 95.648438 C 160.976562 96.109375 159.410156 96.695312 157.898438 97.386719 C 157.664062 97.492188 157.425781 97.613281 157.203125 97.730469 C 156.6875 97.980469 156.183594 98.238281 155.6875 98.515625 C 155.421875 98.660156 155.164062 98.808594 154.90625 98.960938 C 154.433594 99.242188 153.972656 99.539062 153.523438 99.847656 C 153.285156 100.003906 153.050781 100.152344 152.824219 100.3125 C 152.234375 100.734375 151.667969 101.175781 151.121094 101.632812 C 151.054688 101.6875 150.992188 101.734375 150.925781 101.789062 L 150.914062 101.789062 C 150.5625 101.78125 150.195312 101.78125 149.84375 101.789062 C 139.566406 95.964844 125.554688 94.59375 114.769531 98.679688 C 114.761719 98.6875 114.75 98.691406 114.742188 98.695312 C 114.007812 98.976562 113.289062 99.285156 112.578125 99.617188 C 112.53125 99.640625 112.484375 99.664062 112.4375 99.683594 C 111.742188 100.015625 111.058594 100.367188 110.390625 100.742188 C 108.550781 101.761719 106.816406 102.953125 105.203125 104.289062 C 105.199219 104.289062 105.199219 104.289062 105.195312 104.289062 C 103.578125 105.625 102.082031 107.105469 100.726562 108.710938 L 100.726562 108.714844 C 100.347656 109.160156 99.988281 109.613281 99.628906 110.074219 C 99.597656 110.121094 99.5625 110.167969 99.527344 110.210938 C 99.203125 110.644531 98.886719 111.082031 98.585938 111.527344 C 98.519531 111.617188 98.457031 111.714844 98.394531 111.804688 C 98.121094 112.210938 97.851562 112.628906 97.597656 113.046875 C 97.503906 113.199219 97.414062 113.347656 97.328125 113.496094 C 97.101562 113.875 96.882812 114.253906 96.671875 114.640625 C 96.554688 114.859375 96.441406 115.078125 96.328125 115.300781 C 96.15625 115.628906 95.984375 115.964844 95.824219 116.300781 C 95.675781 116.617188 95.535156 116.9375 95.394531 117.257812 C 95.28125 117.515625 95.164062 117.773438 95.054688 118.03125 C 94.855469 118.523438 94.671875 119.007812 94.492188 119.511719 C 94.453125 119.613281 94.410156 119.722656 94.371094 119.832031 C 94.152344 120.457031 93.953125 121.097656 93.765625 121.746094 C 58.449219 137.980469 35.667969 163.539062 35.667969 192.285156 C 35.667969 193.269531 35.703125 194.242188 35.757812 195.21875 C 35.769531 195.476562 35.789062 195.742188 35.804688 196 C 35.859375 196.828125 35.933594 197.65625 36.027344 198.472656 C 36.050781 198.632812 36.058594 198.792969 36.082031 198.953125 C 36.199219 199.898438 36.347656 200.855469 36.511719 201.800781 C 36.558594 202.035156 36.605469 202.285156 36.652344 202.519531 C 36.796875 203.28125 36.960938 204.042969 37.136719 204.808594 C 37.191406 205.03125 37.238281 205.246094 37.296875 205.472656 C 37.527344 206.40625 37.777344 207.332031 38.058594 208.253906 C 38.117188 208.449219 38.183594 208.640625 38.242188 208.835938 C 38.484375 209.597656 38.738281 210.347656 39.007812 211.101562 C 39.097656 211.347656 39.183594 211.59375 39.277344 211.839844 C 39.617188 212.742188 39.972656 213.65625 40.359375 214.546875 C 40.40625 214.652344 40.457031 214.761719 40.503906 214.867188 C 40.859375 215.675781 41.230469 216.46875 41.621094 217.261719 C 41.742188 217.519531 41.867188 217.777344 41.996094 218.027344 C 42.390625 218.820312 42.804688 219.605469 43.238281 220.378906 C 43.296875 220.484375 43.351562 220.59375 43.414062 220.699219 C 43.902344 221.570312 44.417969 222.429688 44.949219 223.289062 C 45.097656 223.523438 45.253906 223.769531 45.402344 224.007812 C 45.847656 224.695312 46.300781 225.382812 46.769531 226.070312 C 46.898438 226.261719 47.027344 226.457031 47.160156 226.636719 C 47.746094 227.476562 48.351562 228.300781 48.96875 229.117188 C 49.132812 229.332031 49.300781 229.539062 49.46875 229.753906 C 49.972656 230.40625 50.492188 231.050781 51.019531 231.695312 C 51.207031 231.910156 51.390625 232.148438 51.578125 232.363281 C 52.253906 233.167969 52.949219 233.960938 53.660156 234.746094 C 53.800781 234.894531 53.949219 235.046875 54.09375 235.207031 C 54.695312 235.863281 55.316406 236.507812 55.945312 237.160156 C 56.171875 237.386719 56.398438 237.613281 56.628906 237.847656 C 57.371094 238.589844 58.125 239.332031 58.902344 240.0625 C 58.972656 240.125 59.042969 240.191406 59.109375 240.253906 C 59.886719 240.984375 60.6875 241.691406 61.5 242.402344 C 61.753906 242.628906 62.015625 242.851562 62.273438 243.078125 C 62.976562 243.679688 63.691406 244.28125 64.421875 244.871094 C 64.601562 245.023438 64.777344 245.171875 64.960938 245.3125 C 65.84375 246.019531 66.742188 246.71875 67.660156 247.417969 C 67.925781 247.609375 68.195312 247.8125 68.464844 248.019531 C 69.195312 248.554688 69.9375 249.101562 70.6875 249.628906 C 70.949219 249.8125 71.203125 250.003906 71.46875 250.1875 C 72.429688 250.851562 73.398438 251.507812 74.390625 252.164062 C 74.636719 252.324219 74.890625 252.484375 75.144531 252.644531 C 75.941406 253.160156 76.746094 253.667969 77.570312 254.171875 C 77.878906 254.375 78.195312 254.570312 78.507812 254.761719 C 79.542969 255.382812 80.589844 256.007812 81.652344 256.609375 C 81.824219 256.707031 82.003906 256.800781 82.175781 256.898438 C 83.105469 257.425781 84.050781 257.949219 85 258.457031 C 85.347656 258.648438 85.695312 258.832031 86.046875 259.015625 C 87.003906 259.53125 87.980469 260.023438 88.960938 260.519531 C 89.144531 260.601562 89.320312 260.699219 89.507812 260.785156 C 90.636719 261.355469 91.792969 261.902344 92.957031 262.441406 C 93.3125 262.613281 93.671875 262.773438 94.03125 262.933594 C 94.960938 263.363281 95.898438 263.78125 96.84375 264.191406 C 97.148438 264.328125 97.457031 264.457031 97.761719 264.597656 C 98.953125 265.101562 100.160156 265.609375 101.378906 266.089844 C 101.722656 266.230469 102.074219 266.371094 102.421875 266.507812 C 103.382812 266.886719 104.347656 267.261719 105.324219 267.625 C 105.695312 267.765625 106.074219 267.90625 106.449219 268.046875 C 107.703125 268.507812 108.96875 268.957031 110.242188 269.398438 C 110.53125 269.496094 110.824219 269.589844 111.113281 269.6875 C 112.164062 270.042969 113.222656 270.398438 114.28125 270.730469 C 114.703125 270.871094 115.121094 271 115.542969 271.128906 C 116.78125 271.511719 118.027344 271.898438 119.289062 272.265625 C 119.46875 272.320312 119.648438 272.363281 119.832031 272.425781 C 121.148438 272.800781 122.476562 273.167969 123.8125 273.511719 C 124.261719 273.628906 124.707031 273.757812 125.152344 273.863281 C 126.488281 274.21875 127.835938 274.550781 129.191406 274.875 C 129.339844 274.90625 129.484375 274.949219 129.632812 274.980469 C 131.523438 275.421875 133.433594 275.839844 135.363281 276.25 C 135.597656 276.292969 135.832031 276.34375 136.070312 276.386719 C 137.945312 276.773438 139.835938 277.128906 141.746094 277.472656 C 142.078125 277.527344 142.398438 277.589844 142.71875 277.644531 C 144.585938 277.964844 146.476562 278.265625 148.375 278.546875 C 148.738281 278.601562 149.113281 278.652344 149.476562 278.695312 C 151.367188 278.964844 153.277344 279.222656 155.183594 279.449219 C 155.558594 279.492188 155.9375 279.535156 156.300781 279.578125 C 158.242188 279.792969 160.195312 279.984375 162.15625 280.167969 C 162.511719 280.1875 162.855469 280.222656 163.199219 280.242188 C 165.214844 280.414062 167.230469 280.566406 169.269531 280.683594 C 169.546875 280.695312 169.835938 280.703125 170.128906 280.726562 C 172.230469 280.84375 174.34375 280.941406 176.476562 280.996094 C 176.660156 281.003906 176.839844 281.003906 177.011719 281.003906 C 179.265625 281.070312 181.519531 281.101562 183.792969 281.101562 C 190.378906 281.101562 196.878906 280.84375 203.238281 280.339844 C 203.316406 280.339844 203.378906 280.339844 203.453125 280.328125 C 206.242188 280.101562 208.988281 279.835938 211.726562 279.523438 C 212.164062 279.46875 212.605469 279.425781 213.042969 279.371094 C 214.460938 279.199219 215.855469 279.019531 217.25 278.824219 C 217.410156 278.804688 217.558594 278.78125 217.722656 278.761719 C 219.019531 278.578125 220.316406 278.386719 221.605469 278.179688 C 221.863281 278.136719 222.128906 278.09375 222.386719 278.0625 C 222.988281 277.964844 223.597656 277.847656 224.199219 277.75 C 224.359375 277.71875 224.523438 277.6875 224.695312 277.664062 C 225.464844 277.535156 226.226562 277.40625 227 277.269531 C 228.105469 277.0625 229.1875 276.847656 230.28125 276.632812 C 230.710938 276.550781 231.140625 276.472656 231.558594 276.386719 C 232.726562 276.152344 233.875 275.894531 235.023438 275.636719 C 235.335938 275.570312 235.636719 275.507812 235.933594 275.441406 C 237.019531 275.195312 238.082031 274.9375 239.144531 274.691406 C 239.5625 274.582031 239.980469 274.488281 240.386719 274.390625 C 241.234375 274.175781 242.058594 273.960938 242.886719 273.734375 C 243.488281 273.585938 244.085938 273.433594 244.6875 273.273438 C 245.558594 273.039062 246.414062 272.789062 247.273438 272.542969 C 247.851562 272.382812 248.433594 272.222656 249 272.050781 C 249.921875 271.78125 250.835938 271.503906 251.746094 271.214844 L 253.226562 270.761719 L 255.769531 269.925781 C 256.285156 269.742188 256.808594 269.582031 257.324219 269.398438 C 258.054688 269.152344 258.785156 268.882812 259.503906 268.625 C 260.09375 268.421875 260.683594 268.21875 261.273438 267.992188 C 262.023438 267.722656 262.761719 267.433594 263.503906 267.144531 C 264.105469 266.917969 264.703125 266.691406 265.292969 266.457031 C 266.035156 266.164062 266.773438 265.855469 267.503906 265.554688 C 268.0625 265.328125 268.621094 265.101562 269.15625 264.878906 C 269.230469 264.84375 269.292969 264.8125 269.371094 264.78125 L 271.074219 264.039062 C 271.675781 263.769531 272.289062 263.511719 272.878906 263.246094 C 273.617188 262.914062 274.324219 262.570312 275.054688 262.234375 C 275.546875 262 276.0625 261.761719 276.558594 261.527344 C 277.179688 261.226562 277.789062 260.914062 278.402344 260.613281 C 278.992188 260.3125 279.582031 260.023438 280.160156 259.722656 C 280.859375 259.378906 281.523438 259.015625 282.199219 258.648438 C 282.671875 258.402344 283.152344 258.144531 283.625 257.886719 C 283.925781 257.726562 284.214844 257.566406 284.503906 257.394531 C 284.753906 257.253906 284.988281 257.125 285.234375 256.984375 C 285.835938 256.652344 286.445312 256.308594 287.035156 255.953125 C 287.207031 255.855469 287.371094 255.761719 287.53125 255.664062 C 287.980469 255.394531 288.421875 255.136719 288.859375 254.878906 L 290.277344 254.011719 C 290.898438 253.625 291.511719 253.238281 292.121094 252.839844 C 292.570312 252.550781 293.023438 252.261719 293.460938 251.980469 C 293.742188 251.796875 294.007812 251.605469 294.277344 251.421875 C 294.523438 251.261719 294.761719 251.101562 294.996094 250.9375 C 295.511719 250.585938 296.035156 250.230469 296.539062 249.875 C 297.109375 249.480469 297.667969 249.058594 298.234375 248.652344 C 298.652344 248.351562 299.0625 248.050781 299.46875 247.761719 C 300.015625 247.339844 300.550781 246.921875 301.089844 246.503906 C 301.507812 246.191406 301.902344 245.871094 302.3125 245.558594 C 302.859375 245.117188 303.382812 244.679688 303.921875 244.238281 C 304.296875 243.917969 304.683594 243.605469 305.046875 243.292969 C 305.582031 242.84375 306.085938 242.390625 306.601562 241.941406 C 306.933594 241.628906 307.300781 241.328125 307.644531 241.015625 L 309.21875 239.535156 C 309.660156 239.105469 310.109375 238.6875 310.539062 238.269531 C 304.574219 240.726562 296.703125 242.507812 287.390625 239.953125 C 287.359375 239.941406 287.328125 239.941406 287.292969 239.941406 L 287.292969 239.933594 C 262.957031 257.414062 225.5625 268.605469 183.632812 268.605469 C 110.28125 268.605469 50.8125 234.378906 50.8125 192.152344 C 50.816406 169.636719 67.722656 149.402344 94.617188 135.40625 C 94.6875 135.367188 94.757812 135.335938 94.832031 135.292969 C 96.195312 134.589844 97.578125 133.902344 98.988281 133.230469 C 99.265625 133.101562 99.539062 132.972656 99.8125 132.839844 C 101.195312 132.191406 102.589844 131.558594 104.019531 130.941406 C 104.042969 130.933594 104.066406 130.917969 104.089844 130.910156 C 104.085938 130.753906 104.078125 130.601562 104.078125 130.441406 C 104.078125 120.390625 109.570312 111.585938 118.269531 108.28125 C 127.066406 104.9375 139.203125 106.613281 146.871094 112.125 C 149.308594 111.957031 153.265625 112.070312 155.078125 112.132812 C 160.195312 105.296875 171.394531 102.519531 180.242188 106.132812 C 182.453125 107.027344 185.507812 109.546875 189.046875 112.460938 C 190.421875 113.59375 191.847656 114.757812 193.273438 115.886719 C 213.140625 116.710938 231.792969 120.046875 248.269531 125.347656 C 253.054688 124.738281 257.355469 123.53125 260.746094 121.453125 C 262.398438 119.898438 263.761719 118.757812 264.855469 117.941406 C 244.65625 110.003906 221.023438 104.945312 195.601562 103.742188 L 195.59375 103.742188 L 195.59375 103.738281 C 195.410156 103.59375 195.226562 103.453125 195.042969 103.316406 C 194.949219 103.238281 194.851562 103.164062 194.753906 103.09375 C 194.304688 102.734375 193.84375 102.390625 193.394531 102.054688 C 193.371094 102.042969 193.351562 102.03125 193.339844 102.019531 C 192.898438 101.695312 192.460938 101.378906 192.019531 101.074219 C 191.988281 101.046875 191.945312 101.023438 191.914062 100.996094 C 191.496094 100.710938 191.074219 100.421875 190.65625 100.152344 C 190.605469 100.113281 190.550781 100.078125 190.496094 100.042969 C 190.101562 99.785156 189.703125 99.53125 189.316406 99.292969 C 189.242188 99.246094 189.167969 99.195312 189.082031 99.148438 C 188.714844 98.925781 188.363281 98.714844 187.996094 98.507812 C 187.890625 98.449219 187.78125 98.386719 187.664062 98.324219 C 187.34375 98.144531 187.019531 97.964844 186.710938 97.800781 C 186.550781 97.714844 186.386719 97.640625 186.214844 97.554688 C 185.960938 97.425781 185.703125 97.289062 185.445312 97.171875 C 185.027344 96.976562 184.617188 96.796875 184.222656 96.628906 C 181.410156 95.488281 178.472656 94.785156 175.5 94.480469 C 174.007812 94.328125 172.519531 94.277344 171.027344 94.320312 Z M 327.292969 170.21875 C 324.730469 172.722656 320.546875 176.476562 316.601562 176.09375 C 316.148438 176.050781 315.417969 178.855469 315.207031 179.390625 C 314.90625 180.195312 314.882812 180.460938 315.097656 181.300781 C 315.257812 181.945312 315.410156 182.589844 315.527344 183.242188 C 316.0625 185.84375 316.363281 188.492188 316.417969 191.148438 C 316.480469 193.972656 316.265625 196.796875 315.816406 199.578125 C 315.710938 200.234375 315.582031 200.878906 315.441406 201.523438 C 315.292969 202.230469 315.710938 202.296875 316.148438 202.800781 C 316.738281 203.476562 317.179688 204.269531 317.53125 205.109375 C 318.421875 207.351562 318.636719 209.960938 318.390625 212.367188 C 320.140625 211.660156 322.425781 211.070312 324.269531 211.765625 C 326.523438 212.625 326.191406 215.332031 325.953125 217.277344 C 329.761719 209.5 331.917969 200.964844 331.917969 192.289062 C 331.917969 184.703125 330.265625 177.183594 327.292969 170.21875 Z M 205.910156 180.03125 C 205.773438 180.027344 205.652344 180.039062 205.601562 180.078125 C 205.0625 182.773438 203.839844 185.375 202.402344 187.703125 C 200.632812 190.570312 198.125 193.867188 194.949219 195.230469 C 192.664062 196.207031 189.671875 195.59375 189.132812 192.84375 C 188.84375 191.359375 189.5 189.8125 189.402344 188.292969 C 189.304688 186.886719 188.929688 185.285156 187.902344 184.253906 C 187.332031 184.144531 186.035156 184.902344 185.476562 185.09375 C 184.855469 185.3125 184.382812 187.910156 184.070312 188.609375 C 182.816406 191.40625 180.9375 193.886719 178.675781 195.949219 C 176.925781 197.550781 174.933594 198.957031 172.742188 199.890625 C 170.824219 200.707031 167.390625 201.007812 166.425781 198.570312 C 165.804688 196.992188 166.996094 195.421875 167.46875 193.984375 C 167.972656 192.414062 168.230469 190.765625 168.25 189.121094 C 168.25 188.710938 168.433594 187.136719 168.101562 186.804688 C 167.316406 185.992188 165.527344 188.535156 165.042969 188.980469 C 162.46875 191.375 159.550781 193.414062 156.40625 194.972656 C 153.996094 196.164062 150.703125 197.753906 147.957031 197.023438 C 146.796875 196.699219 145.820312 195.894531 145.542969 194.703125 C 145.210938 193.300781 145.917969 192.125 146.507812 190.914062 C 147.589844 188.683594 148.503906 186.1875 148.652344 183.683594 C 148.726562 182.503906 143.214844 181.390625 142.207031 181.15625 C 142.042969 181.125 140.414062 180.648438 140.328125 180.785156 C 139.972656 181.3125 139.664062 181.863281 139.375 182.421875 C 137.957031 185.0625 136.800781 188.074219 136.820312 191.109375 C 136.832031 192.488281 136.917969 193.714844 135.726562 194.660156 C 134.695312 195.488281 133.292969 195.660156 132.019531 195.507812 C 126.402344 194.832031 121.945312 188.625 120.425781 183.554688 C 110.941406 188.15625 110.785156 201.480469 112.558594 210.347656 C 113.488281 210.167969 115.566406 209.738281 115.566406 209.738281 C 115.589844 208.394531 116.007812 206.945312 116.1875 206.417969 C 117.242188 203.25 119.035156 199.964844 121.433594 197.601562 C 123.683594 195.402344 128.308594 194.070312 129.484375 198.066406 C 130.488281 201.46875 130.480469 205.085938 133.3125 207.652344 C 133.566406 206.226562 134.011719 204.820312 134.566406 203.476562 C 135.621094 200.941406 137.378906 197.871094 140.125 196.894531 C 142.539062 196.035156 145.199219 197.378906 145.230469 200.117188 C 145.253906 201.960938 145.113281 203.59375 145.617188 205.429688 C 146.097656 207.160156 146.839844 208.804688 147.699219 210.371094 C 148.191406 211.273438 148.71875 212.152344 149.285156 213 C 149.757812 213.730469 149.929688 214.539062 150.839844 214.152344 C 152.085938 213.636719 153.105469 212.667969 153.84375 211.5625 C 154.617188 210.390625 155.140625 209.027344 155.324219 207.632812 C 155.496094 206.289062 155.25 204.949219 155.679688 203.636719 C 156.484375 201.230469 158.875 201.308594 160.828125 202.253906 C 166.757812 205.140625 167.605469 212.28125 168.570312 218.082031 C 173.109375 216.417969 175.660156 211.90625 176.992188 207.503906 C 177.59375 205.472656 177.988281 203.378906 178.191406 201.273438 C 178.363281 199.492188 178.269531 196.925781 180.316406 196.164062 C 182.410156 195.378906 184.917969 196.914062 186.570312 198.054688 C 188.511719 199.375 190.261719 200.976562 191.890625 202.660156 C 192.289062 203.070312 192.683594 203.488281 193.070312 203.917969 C 193.136719 203.992188 195.257812 202.929688 195.515625 202.820312 C 197.148438 202.167969 199.109375 201.875 200.484375 200.738281 C 202.703125 198.902344 204.042969 196.140625 204.613281 193.347656 C 205.03125 191.242188 204.152344 188.332031 206.019531 186.808594 C 208.378906 184.867188 211.660156 186.949219 213.644531 188.464844 C 216.328125 190.507812 218.613281 193.109375 220.542969 195.863281 C 221.625 197.386719 222.601562 198.988281 223.449219 200.652344 C 223.824219 201.394531 224.167969 202.144531 224.488281 202.917969 C 224.726562 203.464844 224.941406 204.871094 225.550781 204.699219 C 228.640625 203.832031 231.289062 201.457031 233.125 198.878906 C 233.960938 197.679688 234.710938 196.347656 235.066406 194.90625 C 235.378906 193.660156 235.945312 192.328125 237.074219 191.601562 C 239.078125 190.304688 241.566406 191.777344 242.984375 193.289062 C 244.945312 195.378906 245.816406 198.828125 246.542969 201.511719 C 247.53125 205.164062 248.195312 209.027344 248.035156 212.828125 C 252.273438 211.949219 256.285156 209.84375 259.78125 207.332031 C 263.042969 204.992188 265.402344 202.304688 267.535156 198.957031 C 259.855469 196.132812 252.765625 192.113281 245.214844 188.988281 C 238.488281 186.199219 231.300781 183.113281 224.039062 182.050781 C 223.160156 181.921875 222.964844 182 222.207031 182.558594 C 221.488281 183.078125 220.734375 183.566406 219.953125 183.992188 C 218.878906 184.585938 217.679688 185.089844 216.445312 185.191406 C 214.75 185.332031 213.3125 184.507812 212.5625 182.996094 C 212.238281 182.328125 212.035156 181.59375 211.949219 180.855469 C 211.90625 180.511719 210.824219 180.589844 210.511719 180.558594 C 209.429688 180.457031 208.335938 180.347656 207.242188 180.238281 C 207.046875 180.222656 206.339844 180.050781 205.910156 180.03125 Z M 276.234375 201.875 C 276.984375 205.539062 277.027344 209.414062 276.726562 213.128906 C 280.578125 211.25 283.914062 207.964844 286.585938 204.667969 C 283.101562 203.863281 279.65625 202.917969 276.234375 201.875 Z M 276.234375 201.875 " fill-opacity="1" fill-rule="nonzero"/><path fill="#046a38" d="M 172.882812 111.105469 C 168.9375 111.03125 165.246094 112.722656 162.242188 115.203125 C 165.792969 115.917969 169.289062 116.898438 172.605469 118.363281 C 174.386719 119.148438 176.101562 120.054688 177.765625 121.039062 C 178.527344 121.492188 178.859375 121.515625 179.714844 121.5 C 180.339844 121.492188 180.960938 121.503906 181.582031 121.527344 C 185.851562 121.667969 190.109375 122.164062 194.335938 122.773438 C 192.632812 122.492188 190.914062 121.125 189.53125 120.183594 C 187.34375 118.691406 185.242188 117.070312 183.222656 115.355469 C 180.328125 112.894531 176.734375 111.171875 172.882812 111.105469 Z M 311.398438 112.816406 C 307.675781 112.753906 303.632812 114.613281 300.800781 116.597656 C 302.6875 117.941406 304.082031 120.132812 305.539062 121.898438 C 307.128906 123.800781 308.789062 125.785156 311 126.960938 C 313.542969 128.3125 315.882812 126.375 318.464844 126.863281 C 319.980469 127.152344 319.367188 128.089844 319.109375 129.140625 C 318.9375 129.8125 320.074219 130.265625 320.289062 130.925781 C 321.039062 133.230469 314.453125 131.191406 313.585938 130.898438 C 310.636719 129.910156 307.878906 128.425781 305.324219 126.652344 C 303.019531 125.046875 301.066406 123.148438 299.082031 121.175781 C 297.753906 119.871094 296.335938 118.625 294.632812 117.855469 C 289.40625 115.515625 282.574219 116.882812 277.5 118.933594 C 272.449219 120.972656 267.054688 123.941406 263.234375 127.90625 C 261.230469 129.984375 259.382812 132.113281 257.089844 133.898438 C 255.683594 134.996094 254.171875 135.988281 252.5625 136.769531 C 251.351562 137.359375 249.386719 138.394531 247.992188 138.179688 C 246.480469 137.9375 248.089844 136.878906 248.59375 136.589844 C 249.472656 136.089844 250.289062 135.476562 251.101562 134.871094 C 253 133.441406 255.277344 131.800781 256.519531 129.726562 C 252.574219 131.257812 247.929688 131.410156 243.753906 131.621094 C 238.296875 131.902344 232.78125 131.859375 227.332031 131.324219 C 222.214844 130.816406 217.152344 129.707031 212.078125 128.90625 C 204.6875 127.734375 197.253906 126.78125 189.777344 126.261719 C 185.820312 125.984375 181.828125 126.101562 177.871094 125.832031 C 174.984375 125.632812 172.445312 123.515625 169.761719 122.511719 C 164.25 120.457031 157.964844 119.0625 152.054688 119.21875 C 153.855469 122.71875 157.46875 125.382812 160.570312 127.652344 C 161.941406 128.65625 163.347656 129.617188 164.796875 130.515625 C 165.484375 130.945312 168.046875 132.058594 167.488281 133.09375 C 166.757812 134.441406 163.542969 132.648438 162.738281 132.257812 C 160.675781 131.257812 158.746094 129.996094 156.902344 128.636719 C 153.125 125.863281 149.714844 122.644531 146.132812 119.621094 C 141.445312 115.65625 136.242188 113.289062 130.003906 113.285156 C 124.292969 113.269531 117.398438 115.246094 114.109375 120.296875 C 111.035156 125.023438 110.960938 131.621094 112.550781 136.875 C 112.9375 138.15625 113.453125 139.40625 114.140625 140.5625 C 114.503906 141.171875 115.570312 142.542969 115.167969 143.332031 C 114.519531 144.597656 110.640625 140.765625 110.089844 140.222656 C 107.757812 144.171875 105.585938 148.683594 105.976562 153.394531 C 106.167969 155.683594 106.996094 157.859375 108.25 159.765625 C 108.625 160.332031 111.011719 162.933594 110.203125 163.765625 C 109.445312 164.546875 107.125 162.546875 106.621094 162.125 C 106.070312 161.667969 104.242188 159.351562 103.632812 159.703125 C 100.734375 161.355469 98.035156 163.355469 95.59375 165.628906 C 86.394531 174.175781 81.15625 186.191406 79.445312 198.503906 C 78.554688 204.925781 78.253906 211.625 80.15625 217.886719 C 81.847656 223.460938 85.035156 228.472656 89.039062 232.683594 C 97.835938 241.917969 110.164062 247.523438 122.511719 250.058594 C 128.597656 251.316406 134.578125 251.5625 140.734375 250.746094 C 147.34375 249.886719 153.84375 248.167969 160.109375 245.902344 C 165.804688 243.839844 171.4375 241.308594 176.464844 237.925781 C 177.527344 237.203125 178.535156 236.207031 179.695312 235.679688 C 181.144531 235.023438 182.859375 234.992188 184.425781 235.023438 C 186.957031 235.089844 189.476562 235.238281 192.007812 235.273438 C 204.496094 235.421875 217.046875 234.929688 229.488281 233.84375 C 232.105469 233.617188 234.734375 233.351562 237.339844 233.015625 C 240.699219 232.578125 243.832031 232.671875 247.167969 233.125 C 253.207031 233.917969 259.363281 233.949219 265.445312 233.949219 C 270.507812 233.949219 275.613281 233.671875 280.675781 233.875 C 284.035156 234.015625 287.378906 234.347656 290.738281 234.574219 C 293.601562 234.765625 296.5625 235.003906 299.425781 234.5625 C 305.476562 233.605469 311.484375 230.546875 316.105469 226.585938 C 318.230469 224.78125 320.214844 222.613281 321.320312 220.023438 C 321.792969 218.9375 323.175781 214.867188 320.835938 214.945312 C 319.527344 214.988281 318.292969 215.835938 317.125 216.371094 C 316.042969 216.867188 314.925781 217.304688 313.800781 217.703125 C 311.214844 218.628906 308.542969 219.347656 305.863281 219.9375 C 299.757812 221.269531 293.539062 221.976562 287.316406 222.34375 C 275.570312 223.050781 263.4375 222.816406 251.855469 220.601562 C 246.15625 219.507812 240.699219 217.09375 235.410156 214.804688 C 230.25 212.570312 225.199219 210.035156 219.972656 207.976562 C 213.582031 205.453125 205.941406 205.429688 199.355469 207.210938 C 194.464844 208.542969 190.003906 211.359375 185.648438 213.859375 C 180.617188 216.726562 175.628906 219.722656 170.511719 222.429688 C 168.570312 223.449219 166.609375 224.492188 164.539062 225.210938 C 160.871094 226.488281 156.910156 226.488281 153.199219 225.359375 C 147.773438 223.695312 144.082031 219.703125 139.363281 216.835938 C 133.589844 213.324219 126.828125 212.808594 120.253906 213.816406 C 117.308594 214.277344 114.378906 215.105469 111.765625 216.554688 C 109.144531 218.003906 107.367188 220.238281 105.140625 222.183594 C 102.988281 224.070312 99.023438 226.628906 97.164062 222.933594 C 96.550781 221.71875 96.828125 220.238281 96.492188 218.929688 C 96.183594 217.714844 95.535156 216.621094 94.988281 215.492188 C 92.117188 209.660156 90.664062 203.078125 93.300781 196.859375 C 94.570312 193.863281 96.320312 191.058594 98.214844 188.417969 C 99.15625 187.105469 100.152344 185.824219 101.246094 184.636719 C 101.796875 184.039062 102.996094 182.597656 103.976562 183.074219 C 105.140625 183.632812 101.605469 188.75 101.164062 189.554688 C 99.863281 191.953125 98.578125 194.371094 97.449219 196.859375 C 94.429688 203.496094 98.839844 211.003906 101.679688 216.921875 C 102.925781 215.847656 104.183594 214.773438 105.457031 213.71875 C 106.34375 212.988281 107.234375 212.257812 108.152344 211.574219 C 108.738281 211.132812 108.394531 210.703125 108.242188 210.027344 C 108.089844 209.339844 107.949219 208.652344 107.824219 207.964844 C 106.925781 202.917969 106.902344 197.65625 108.292969 192.699219 C 110.683594 184.171875 117.289062 177.625 125.835938 175.339844 C 131.324219 173.871094 136.722656 174.394531 142.195312 175.601562 C 145.457031 176.3125 148.683594 177.203125 151.859375 178.265625 C 154.992188 179.3125 157.972656 180.582031 161.234375 181.195312 C 165.085938 181.917969 169.054688 182.078125 172.96875 181.816406 C 176.15625 181.605469 179.523438 181.28125 182.558594 180.21875 C 187.085938 178.636719 191.3125 176.003906 195.386719 173.519531 C 199.980469 170.726562 204.464844 167.765625 208.945312 164.808594 C 213.300781 161.933594 217.453125 159.1875 222.742188 158.339844 C 229.488281 157.253906 235.699219 159.382812 242.070312 161.28125 C 249.074219 163.363281 256.488281 165.570312 263.867188 164.527344 C 268.363281 163.890625 272.277344 162.121094 276.289062 160.085938 C 281.125 157.636719 285.890625 155.035156 290.695312 152.535156 C 294.554688 150.53125 298.492188 148.300781 302.644531 146.964844 C 305.582031 146.027344 308.769531 145.941406 311.816406 145.976562 C 315.515625 146.015625 319.207031 146.363281 322.863281 146.871094 C 328.269531 147.625 333.964844 142.78125 336.046875 138.113281 C 338.632812 132.25 333.054688 128.464844 328.429688 126.246094 C 325.332031 124.757812 322.640625 123.257812 320.535156 120.417969 C 319.367188 118.824219 318.789062 116.867188 317.425781 115.398438 C 315.753906 113.585938 313.628906 112.855469 311.398438 112.816406 Z M 104.339844 139.132812 C 100.21875 140.273438 95.605469 141.964844 92.191406 144.632812 C 86.925781 148.71875 91.648438 156.433594 94.445312 160.429688 C 95.929688 159.246094 97.300781 157.902344 98.730469 156.648438 C 98.957031 156.453125 100.054688 155.757812 100.066406 155.453125 C 100.101562 154.675781 100.128906 153.898438 100.167969 153.121094 C 100.257812 151.089844 100.410156 149.375 100.996094 147.398438 C 101.832031 144.570312 102.875 141.703125 104.339844 139.132812 Z M 91.640625 162.8125 C 87.707031 162.957031 83.585938 163.660156 79.894531 165.054688 C 76.695312 166.265625 75.03125 168.875 75.636719 172.324219 C 76.226562 175.597656 77.332031 178.878906 78.621094 181.941406 C 81.535156 174.722656 85.90625 168.09375 91.640625 162.8125 Z M 77.046875 186.316406 C 74.695312 187.441406 72.527344 189.050781 70.476562 190.648438 C 68.519531 192.171875 66.40625 193.800781 65.214844 196.023438 C 63.597656 199.0625 64.902344 201.648438 66.785156 204.140625 C 68.769531 206.75 71.097656 209.1875 73.710938 211.175781 C 73.6875 210.648438 73.679688 210.113281 73.679688 209.585938 C 73.679688 201.726562 74.664062 193.820312 77.046875 186.316406 Z M 241.980469 236.65625 C 241.382812 236.679688 240.757812 236.859375 240.179688 236.945312 C 238.464844 237.203125 236.738281 237.429688 235.007812 237.625 C 233.828125 237.753906 232.039062 237.625 231.191406 238.664062 C 230.460938 239.566406 231.363281 240.566406 232.1875 240.953125 C 238.636719 244.011719 246.457031 244.183594 253.425781 243.445312 C 259.125 242.84375 266.246094 241.648438 270.71875 237.699219 C 262.351562 237.882812 253.855469 238.226562 245.53125 237.171875 C 244.546875 237.042969 243.558594 236.894531 242.570312 236.699219 C 242.378906 236.65625 242.1875 236.644531 241.980469 236.65625 Z M 223.734375 238.664062 C 223.285156 238.675781 222.84375 238.730469 222.375 238.761719 C 220.722656 238.878906 219.070312 238.988281 217.40625 239.082031 C 213.707031 239.320312 210.003906 239.503906 206.292969 239.640625 C 199.257812 239.910156 192.199219 240.113281 185.164062 239.8125 C 184.273438 239.78125 183.230469 239.394531 182.757812 240.277344 C 182.523438 240.707031 182.425781 241.1875 182.480469 241.683594 C 182.609375 243.046875 183.734375 244.121094 184.785156 244.882812 C 187.394531 246.773438 190.976562 247.953125 194.109375 248.695312 C 200.757812 250.261719 207.828125 250.21875 214.605469 249.660156 C 219.617188 249.253906 224.753906 248.566406 229.550781 247.007812 C 230.761719 246.621094 234.140625 245.730469 232.640625 244.066406 C 231.136719 242.421875 229.570312 240.910156 227.585938 239.847656 C 226.78125 239.417969 225.945312 239.074219 225.078125 238.824219 C 224.617188 238.699219 224.175781 238.664062 223.734375 238.664062 Z M 174.253906 246.699219 C 172.742188 246.65625 171.347656 246.835938 169.867188 247.503906 C 167.238281 248.671875 164.546875 249.714844 161.832031 250.648438 C 156.394531 252.515625 150.792969 253.976562 145.140625 255.050781 C 152.777344 258.089844 161.917969 258.113281 170.007812 257.757812 C 174.433594 257.566406 178.855469 257.125 183.21875 256.394531 C 185.460938 256.019531 187.695312 255.566406 189.894531 255.042969 C 191.382812 254.664062 193.894531 254.441406 195.085938 253.417969 C 196.316406 252.398438 193.152344 251.605469 192.445312 251.347656 C 190.945312 250.800781 189.441406 250.25 187.917969 249.734375 C 184.003906 248.425781 179.949219 247.210938 175.808594 246.804688 C 175.273438 246.742188 174.757812 246.707031 174.253906 246.699219 Z M 174.253906 246.699219 " fill-opacity="1" fill-rule="nonzero"/><path fill="#003087" d="M 171.769531 91.023438 C 164.011719 91.066406 156.300781 93.550781 150.144531 98.269531 C 138.988281 92.488281 124.695312 91.457031 113.621094 95.660156 C 103.046875 99.671875 94.644531 108.546875 91.097656 119.421875 C 73.59375 127.65625 59.03125 138.304688 48.996094 150.230469 C 38.15625 163.105469 32.425781 177.652344 32.425781 192.285156 C 32.425781 209.253906 40 225.800781 54.335938 240.144531 C 67.613281 253.441406 86.375 264.542969 108.59375 272.265625 C 131.359375 280.167969 157.363281 284.34375 183.792969 284.34375 C 242.136719 284.34375 292.863281 264.15625 318.125 234.667969 C 318.5 234.207031 318.820312 233.777344 319.046875 233.46875 C 319.089844 233.414062 319.121094 233.359375 319.152344 233.316406 C 318.671875 233.714844 318.199219 234.089844 317.757812 234.402344 C 315.183594 236.257812 313.199219 236.925781 310.570312 238.246094 C 310.21875 238.589844 309.96875 238.8125 309.929688 238.855469 C 309.671875 239.105469 309.402344 239.351562 309.132812 239.609375 C 308.652344 240.058594 308.179688 240.523438 307.6875 240.960938 C 307.675781 240.984375 307.664062 240.996094 307.644531 241.015625 C 307.300781 241.328125 306.933594 241.628906 306.601562 241.9375 C 306.570312 241.949219 306.558594 241.972656 306.539062 241.992188 C 306.054688 242.421875 305.582031 242.839844 305.070312 243.269531 C 305.070312 243.28125 305.058594 243.28125 305.046875 243.292969 C 304.683594 243.605469 304.296875 243.914062 303.921875 244.238281 C 303.886719 244.257812 303.855469 244.289062 303.824219 244.3125 C 303.332031 244.71875 302.847656 245.117188 302.355469 245.515625 L 302.3125 245.558594 C 301.902344 245.878906 301.507812 246.191406 301.089844 246.503906 C 301.066406 246.523438 301.023438 246.558594 300.992188 246.578125 C 300.5 246.964844 300.015625 247.339844 299.511719 247.714844 C 299.492188 247.726562 299.480469 247.738281 299.46875 247.757812 C 299.0625 248.058594 298.652344 248.351562 298.234375 248.652344 C 298.171875 248.695312 298.117188 248.746094 298.042969 248.789062 C 297.550781 249.144531 297.066406 249.507812 296.5625 249.863281 C 296.5625 249.875 296.539062 249.875 296.539062 249.875 C 295.800781 250.402344 295.039062 250.90625 294.277344 251.421875 C 294.019531 251.605469 293.761719 251.777344 293.496094 251.957031 C 293.484375 251.957031 293.472656 251.96875 293.460938 251.980469 C 293.023438 252.269531 292.570312 252.546875 292.121094 252.839844 C 292.023438 252.890625 291.9375 252.957031 291.851562 253.019531 C 291.339844 253.34375 290.835938 253.664062 290.320312 253.988281 C 290.308594 254 290.285156 254.007812 290.277344 254.007812 C 289.816406 254.300781 289.332031 254.589844 288.859375 254.878906 C 288.765625 254.933594 288.679688 254.984375 288.59375 255.039062 C 288.238281 255.242188 287.882812 255.449219 287.53125 255.664062 C 286.542969 256.242188 285.535156 256.824219 284.503906 257.390625 C 284.226562 257.554688 283.949219 257.714844 283.65625 257.875 C 283.648438 257.875 283.636719 257.886719 283.625 257.886719 C 283.152344 258.144531 282.671875 258.402344 282.199219 258.648438 L 281.78125 258.875 C 281.246094 259.152344 280.71875 259.441406 280.171875 259.722656 L 280.160156 259.722656 C 279.582031 260.023438 278.992188 260.3125 278.402344 260.613281 C 278.347656 260.632812 278.285156 260.667969 278.230469 260.699219 C 277.683594 260.96875 277.148438 261.234375 276.601562 261.503906 C 276.589844 261.515625 276.566406 261.515625 276.558594 261.527344 C 276.0625 261.761719 275.546875 262 275.054688 262.234375 C 274.90625 262.300781 274.742188 262.375 274.59375 262.449219 C 274.035156 262.707031 273.488281 262.964844 272.921875 263.222656 C 272.910156 263.234375 272.898438 263.234375 272.878906 263.242188 C 272.289062 263.511719 271.675781 263.769531 271.074219 264.039062 C 271.011719 264.070312 270.9375 264.09375 270.882812 264.125 C 270.378906 264.339844 269.875 264.566406 269.371094 264.78125 C 268.75 265.046875 268.125 265.296875 267.503906 265.554688 C 267.355469 265.617188 267.214844 265.671875 267.066406 265.734375 C 266.484375 265.972656 265.894531 266.21875 265.304688 266.453125 L 265.292969 266.453125 C 264.703125 266.691406 264.105469 266.917969 263.503906 267.140625 L 263.179688 267.269531 C 262.582031 267.496094 261.96875 267.734375 261.359375 267.957031 C 261.335938 267.96875 261.304688 267.980469 261.273438 267.992188 C 260.691406 268.214844 260.09375 268.421875 259.503906 268.625 C 259.40625 268.667969 259.308594 268.699219 259.210938 268.730469 C 258.589844 268.957031 257.96875 269.183594 257.335938 269.398438 L 257.324219 269.398438 C 256.808594 269.578125 256.285156 269.742188 255.769531 269.921875 L 255.15625 270.117188 C 254.515625 270.332031 253.882812 270.546875 253.226562 270.761719 L 251.746094 271.210938 C 251.5 271.285156 251.265625 271.363281 251.015625 271.4375 C 250.363281 271.628906 249.707031 271.84375 249.054688 272.039062 C 249.03125 272.050781 249.023438 272.050781 249 272.050781 C 248.433594 272.222656 247.851562 272.382812 247.273438 272.542969 C 247.125 272.585938 246.972656 272.628906 246.824219 272.671875 C 246.148438 272.867188 245.472656 273.058594 244.796875 273.242188 C 244.761719 273.253906 244.71875 273.261719 244.6875 273.273438 C 244.097656 273.433594 243.488281 273.585938 242.886719 273.734375 C 242.777344 273.769531 242.660156 273.800781 242.542969 273.832031 C 241.847656 274.015625 241.160156 274.195312 240.460938 274.367188 C 240.441406 274.367188 240.417969 274.378906 240.386719 274.390625 C 239.980469 274.488281 239.5625 274.582031 239.144531 274.691406 C 238.820312 274.765625 238.511719 274.832031 238.1875 274.917969 C 237.480469 275.078125 236.773438 275.261719 236.054688 275.410156 C 236.019531 275.421875 235.976562 275.433594 235.933594 275.441406 C 235.636719 275.507812 235.335938 275.570312 235.023438 275.636719 C 234.605469 275.734375 234.1875 275.820312 233.769531 275.914062 C 233.039062 276.066406 232.320312 276.226562 231.589844 276.378906 C 231.582031 276.378906 231.570312 276.378906 231.558594 276.386719 C 231.140625 276.472656 230.710938 276.546875 230.28125 276.632812 L 229.253906 276.828125 C 228.523438 276.96875 227.792969 277.117188 227.0625 277.257812 C 227.042969 277.257812 227.019531 277.257812 227 277.269531 C 226.066406 277.441406 225.132812 277.589844 224.199219 277.75 C 223.621094 277.847656 223.050781 277.957031 222.460938 278.050781 C 222.441406 278.050781 222.410156 278.050781 222.386719 278.0625 C 222.128906 278.09375 221.863281 278.136719 221.605469 278.179688 C 221.089844 278.257812 220.574219 278.332031 220.058594 278.417969 C 219.308594 278.523438 218.570312 278.644531 217.808594 278.75 C 217.785156 278.75 217.753906 278.761719 217.722656 278.761719 C 217.558594 278.78125 217.410156 278.804688 217.25 278.824219 C 216.628906 278.910156 216.003906 278.988281 215.382812 279.074219 C 214.621094 279.167969 213.871094 279.277344 213.097656 279.363281 C 213.085938 279.371094 213.066406 279.371094 213.042969 279.371094 C 212.605469 279.425781 212.164062 279.46875 211.726562 279.523438 C 211.339844 279.554688 210.964844 279.597656 210.578125 279.640625 C 209.835938 279.726562 209.085938 279.8125 208.335938 279.886719 C 207.457031 279.984375 206.574219 280.050781 205.695312 280.125 C 204.96875 280.199219 204.25 280.265625 203.53125 280.328125 L 203.453125 280.328125 C 203.378906 280.339844 203.316406 280.339844 203.238281 280.339844 C 202.414062 280.402344 201.589844 280.457031 200.761719 280.523438 C 200.054688 280.566406 199.367188 280.617188 198.660156 280.660156 C 197.671875 280.726562 196.675781 280.769531 195.675781 280.8125 C 195.035156 280.84375 194.390625 280.886719 193.746094 280.910156 C 192.597656 280.960938 191.453125 280.984375 190.292969 281.015625 C 189.800781 281.027344 189.296875 281.046875 188.792969 281.058594 C 187.128906 281.089844 185.464844 281.101562 183.792969 281.101562 C 181.519531 281.101562 179.265625 281.070312 177.011719 281.003906 C 176.839844 281.003906 176.660156 281.003906 176.476562 280.996094 C 174.34375 280.941406 172.230469 280.84375 170.128906 280.726562 C 169.835938 280.703125 169.546875 280.695312 169.269531 280.683594 C 167.230469 280.566406 165.214844 280.414062 163.199219 280.242188 C 162.855469 280.222656 162.511719 280.1875 162.15625 280.167969 C 160.195312 279.984375 158.242188 279.792969 156.300781 279.578125 C 155.9375 279.535156 155.558594 279.492188 155.183594 279.449219 C 153.277344 279.222656 151.367188 278.976562 149.476562 278.695312 C 149.113281 278.652344 148.738281 278.601562 148.375 278.546875 C 146.476562 278.265625 144.585938 277.964844 142.71875 277.644531 C 142.398438 277.589844 142.078125 277.527344 141.746094 277.472656 C 139.835938 277.128906 137.945312 276.773438 136.070312 276.386719 C 135.832031 276.34375 135.597656 276.292969 135.363281 276.25 C 133.433594 275.839844 131.523438 275.421875 129.632812 274.980469 C 129.582031 274.96875 129.527344 274.960938 129.472656 274.949219 C 129.382812 274.917969 129.289062 274.894531 129.191406 274.875 C 127.835938 274.550781 126.488281 274.21875 125.152344 273.863281 C 124.707031 273.757812 124.261719 273.628906 123.8125 273.511719 C 122.476562 273.15625 121.148438 272.800781 119.832031 272.425781 C 119.746094 272.394531 119.65625 272.371094 119.574219 272.339844 C 119.476562 272.316406 119.382812 272.285156 119.289062 272.265625 C 118.027344 271.898438 116.78125 271.511719 115.542969 271.125 C 115.121094 270.996094 114.703125 270.867188 114.28125 270.730469 C 113.21875 270.394531 112.164062 270.042969 111.113281 269.6875 C 110.824219 269.589844 110.53125 269.492188 110.242188 269.398438 C 108.96875 268.957031 107.703125 268.503906 106.449219 268.042969 C 106.074219 267.90625 105.695312 267.765625 105.324219 267.625 C 104.347656 267.261719 103.382812 266.882812 102.421875 266.507812 C 102.074219 266.367188 101.722656 266.230469 101.378906 266.089844 C 100.160156 265.605469 98.953125 265.101562 97.761719 264.597656 C 97.457031 264.457031 97.148438 264.328125 96.84375 264.1875 C 95.898438 263.78125 94.960938 263.363281 94.03125 262.933594 C 93.671875 262.773438 93.3125 262.609375 92.957031 262.4375 C 91.792969 261.902344 90.636719 261.355469 89.507812 260.785156 C 89.320312 260.699219 89.144531 260.601562 88.960938 260.515625 C 87.980469 260.023438 87.003906 259.527344 86.046875 259.011719 C 85.695312 258.832031 85.347656 258.648438 85 258.453125 C 84.050781 257.949219 83.105469 257.421875 82.175781 256.898438 C 82.003906 256.800781 81.824219 256.703125 81.652344 256.609375 C 80.589844 256.007812 79.542969 255.382812 78.507812 254.761719 C 78.195312 254.566406 77.878906 254.375 77.570312 254.171875 C 76.746094 253.664062 75.941406 253.160156 75.144531 252.644531 C 74.890625 252.484375 74.636719 252.324219 74.390625 252.160156 C 73.398438 251.507812 72.425781 250.851562 71.46875 250.1875 C 71.203125 250.003906 70.949219 249.808594 70.6875 249.628906 C 69.9375 249.101562 69.195312 248.554688 68.464844 248.015625 C 68.195312 247.8125 67.925781 247.609375 67.660156 247.414062 C 66.742188 246.71875 65.84375 246.019531 64.960938 245.3125 C 64.777344 245.171875 64.601562 245.019531 64.421875 244.871094 C 63.691406 244.28125 62.976562 243.679688 62.273438 243.078125 C 62.015625 242.851562 61.753906 242.625 61.5 242.402344 C 60.6875 241.691406 59.886719 240.984375 59.109375 240.253906 C 59.042969 240.1875 58.972656 240.125 58.902344 240.058594 C 58.125 239.328125 57.371094 238.589844 56.628906 237.847656 C 56.398438 237.613281 56.171875 237.386719 55.945312 237.160156 C 55.316406 236.503906 54.695312 235.859375 54.09375 235.207031 C 53.949219 235.046875 53.800781 234.894531 53.660156 234.746094 C 52.949219 233.960938 52.253906 233.167969 51.578125 232.363281 C 51.390625 232.148438 51.207031 231.910156 51.019531 231.695312 C 50.492188 231.050781 49.972656 230.40625 49.46875 229.753906 C 49.300781 229.539062 49.132812 229.332031 48.96875 229.117188 C 48.351562 228.300781 47.746094 227.476562 47.160156 226.636719 C 47.027344 226.457031 46.898438 226.261719 46.769531 226.070312 C 46.300781 225.382812 45.847656 224.695312 45.402344 224.007812 C 45.253906 223.769531 45.097656 223.523438 44.949219 223.289062 C 44.417969 222.429688 43.902344 221.570312 43.414062 220.699219 C 43.351562 220.59375 43.296875 220.484375 43.238281 220.378906 C 42.804688 219.605469 42.390625 218.820312 41.996094 218.027344 C 41.867188 217.777344 41.742188 217.519531 41.621094 217.261719 C 41.230469 216.46875 40.859375 215.675781 40.503906 214.867188 C 40.457031 214.761719 40.40625 214.652344 40.359375 214.546875 C 39.972656 213.65625 39.617188 212.742188 39.277344 211.839844 C 39.183594 211.59375 39.097656 211.347656 39.007812 211.101562 C 38.738281 210.347656 38.484375 209.597656 38.242188 208.835938 C 38.183594 208.640625 38.117188 208.449219 38.058594 208.253906 C 37.777344 207.332031 37.527344 206.40625 37.296875 205.472656 C 37.238281 205.246094 37.191406 205.03125 37.136719 204.808594 C 36.960938 204.042969 36.796875 203.28125 36.652344 202.519531 C 36.605469 202.285156 36.558594 202.035156 36.511719 201.800781 C 36.347656 200.855469 36.199219 199.898438 36.082031 198.953125 C 36.058594 198.792969 36.050781 198.632812 36.027344 198.472656 C 35.933594 197.65625 35.859375 196.828125 35.804688 196 C 35.789062 195.742188 35.769531 195.476562 35.757812 195.21875 C 35.703125 194.242188 35.667969 193.269531 35.667969 192.285156 L 35.667969 192.28125 C 35.667969 163.539062 58.445312 137.980469 93.765625 121.746094 C 93.945312 121.097656 94.152344 120.457031 94.371094 119.832031 C 94.414062 119.722656 94.453125 119.613281 94.492188 119.511719 C 94.671875 119.007812 94.859375 118.523438 95.054688 118.03125 C 95.160156 117.773438 95.28125 117.515625 95.394531 117.257812 C 95.535156 116.9375 95.675781 116.617188 95.824219 116.300781 C 95.984375 115.964844 96.15625 115.628906 96.328125 115.300781 C 96.441406 115.078125 96.554688 114.859375 96.671875 114.640625 C 96.882812 114.253906 97.101562 113.875 97.328125 113.496094 C 97.414062 113.347656 97.507812 113.199219 97.597656 113.046875 C 97.855469 112.628906 98.121094 112.21875 98.394531 111.804688 C 98.457031 111.714844 98.519531 111.617188 98.585938 111.527344 C 98.890625 111.082031 99.203125 110.644531 99.527344 110.210938 C 99.5625 110.167969 99.597656 110.121094 99.632812 110.074219 C 99.988281 109.613281 100.347656 109.160156 100.726562 108.714844 L 100.730469 108.710938 C 102.085938 107.101562 103.578125 105.625 105.195312 104.289062 C 105.199219 104.289062 105.199219 104.289062 105.203125 104.289062 C 107.40625 102.464844 109.835938 100.910156 112.4375 99.683594 C 112.484375 99.664062 112.53125 99.640625 112.578125 99.617188 C 113.289062 99.289062 114.007812 98.976562 114.742188 98.695312 C 114.75 98.691406 114.757812 98.6875 114.765625 98.679688 C 125.554688 94.59375 139.566406 95.964844 149.84375 101.789062 C 150.195312 101.78125 150.5625 101.78125 150.914062 101.789062 C 150.980469 101.734375 151.054688 101.6875 151.121094 101.632812 C 151.667969 101.175781 152.234375 100.734375 152.824219 100.3125 C 153.050781 100.152344 153.285156 100.003906 153.523438 99.847656 C 153.972656 99.539062 154.433594 99.242188 154.90625 98.960938 C 155.164062 98.808594 155.421875 98.660156 155.6875 98.515625 C 156.183594 98.238281 156.6875 97.980469 157.203125 97.730469 C 157.425781 97.613281 157.664062 97.492188 157.898438 97.386719 C 159.410156 96.691406 160.976562 96.113281 162.597656 95.648438 C 162.84375 95.578125 163.089844 95.523438 163.335938 95.457031 C 163.917969 95.304688 164.496094 95.167969 165.074219 95.042969 C 165.363281 94.988281 165.644531 94.929688 165.921875 94.875 C 166.523438 94.769531 167.113281 94.683594 167.714844 94.605469 C 167.972656 94.570312 168.21875 94.535156 168.476562 94.503906 C 173.753906 93.949219 179.214844 94.589844 184.222656 96.628906 C 184.621094 96.796875 185.027344 96.976562 185.445312 97.171875 C 185.703125 97.289062 185.960938 97.425781 186.21875 97.554688 C 186.390625 97.640625 186.550781 97.714844 186.710938 97.800781 C 187.023438 97.964844 187.34375 98.144531 187.664062 98.324219 C 187.785156 98.386719 187.890625 98.449219 188 98.507812 C 188.363281 98.714844 188.71875 98.925781 189.082031 99.148438 C 189.167969 99.195312 189.242188 99.242188 189.316406 99.292969 C 189.703125 99.53125 190.101562 99.785156 190.496094 100.042969 C 190.550781 100.078125 190.605469 100.113281 190.660156 100.152344 C 191.078125 100.421875 191.496094 100.710938 191.914062 100.996094 C 191.945312 101.023438 191.988281 101.046875 192.019531 101.074219 C 192.460938 101.378906 192.902344 101.695312 193.339844 102.019531 C 193.351562 102.03125 193.371094 102.042969 193.394531 102.054688 C 193.84375 102.390625 194.304688 102.734375 194.757812 103.09375 L 194.765625 103.09375 C 194.851562 103.164062 194.949219 103.238281 195.046875 103.316406 C 195.226562 103.457031 195.410156 103.59375 195.59375 103.738281 C 221.023438 104.945312 244.65625 110.003906 264.867188 117.941406 C 266.539062 116.679688 267.589844 116.152344 268.117188 115.933594 C 246.953125 107.226562 222.503906 101.882812 196.792969 100.554688 C 192.707031 97.390625 188.78125 94.992188 185.445312 93.632812 C 181.078125 91.851562 176.414062 90.996094 171.769531 91.023438 Z M 193.273438 115.886719 C 196.417969 118.359375 199.625 120.628906 202.425781 121.796875 C 204.441406 122.023438 207.039062 122.429688 210.039062 122.898438 C 220.457031 124.53125 235.902344 126.933594 248.269531 125.347656 C 231.792969 120.046875 213.140625 116.710938 193.273438 115.886719 Z M 104.089844 130.910156 C 102.628906 131.535156 101.207031 132.191406 99.792969 132.851562 C 99.53125 132.976562 99.265625 133.097656 99.003906 133.222656 C 97.585938 133.902344 96.1875 134.589844 94.820312 135.304688 C 94.761719 135.335938 94.707031 135.363281 94.648438 135.394531 C 93.742188 135.863281 92.871094 136.355469 91.992188 136.839844 C 91.519531 137.097656 91.035156 137.351562 90.566406 137.613281 C 90.542969 137.628906 90.515625 137.640625 90.492188 137.65625 C 90.394531 137.710938 90.292969 137.765625 90.195312 137.820312 C 90.1875 137.828125 90.175781 137.832031 90.167969 137.835938 C 88.921875 138.546875 87.703125 139.273438 86.507812 140.011719 L 86.503906 140.011719 C 64.371094 153.671875 50.816406 171.996094 50.816406 192.152344 C 50.816406 234.378906 110.28125 268.605469 183.632812 268.605469 C 225.566406 268.605469 262.960938 257.414062 287.296875 239.933594 C 285.28125 239.417969 280.785156 239.394531 276.464844 239.449219 C 267.5625 249.316406 246.890625 249.285156 237.152344 248.664062 C 236.453125 249.652344 235.519531 250.457031 234.457031 250.992188 C 228.453125 253.988281 213.273438 256.351562 200.324219 255.246094 C 199.746094 256.652344 198.492188 258.335938 195.636719 259.207031 C 176.492188 265.050781 148.539062 264.371094 138.316406 257.929688 C 116.046875 259.863281 80.261719 245.988281 73.039062 219.359375 C 66.996094 215.71875 61.175781 208.148438 59.324219 204.753906 C 58.714844 203.648438 57.847656 201.585938 57.847656 198.964844 C 57.847656 196.507812 58.617188 193.566406 61.109375 190.4375 C 62.96875 188.113281 67.660156 184.347656 71.570312 181.957031 C 70.511719 179.027344 69.566406 175.726562 69.164062 173.488281 C 69 172.574219 68.925781 171.683594 68.925781 170.820312 C 68.925781 166.09375 71.285156 162.125 75.546875 159.902344 C 77.667969 158.792969 81.210938 157.757812 84.988281 157.09375 C 84.429688 155.820312 83.996094 154.625 83.726562 153.53125 C 83.429688 152.359375 83.289062 151.171875 83.289062 150.003906 C 83.289062 145.882812 85.039062 141.949219 88.105469 139.558594 C 90.34375 137.816406 96.554688 134.554688 104.179688 132.675781 C 104.132812 132.082031 104.101562 131.5 104.09375 130.910156 Z M 104.089844 130.910156 " fill-opacity="1" fill-rule="nonzero"/><path fill="#003087" d="M 132.375 123.78125 C 129.363281 123.757812 126.375 125.621094 123.667969 128.488281 C 122.277344 129.953125 122.507812 131.195312 124.59375 130.265625 C 126.546875 129.394531 128.988281 128.179688 130.378906 128.640625 C 126.90625 139.996094 129.453125 150.890625 141.488281 151.117188 C 138.945312 153.898438 133.851562 154.359375 130.609375 154.359375 C 127.371094 154.359375 127.542969 155.808594 130.378906 156.21875 C 141.722656 157.84375 151.902344 153.203125 159.152344 143.933594 L 163.789062 143.007812 C 166.878906 142.085938 165.902344 139.773438 163.476562 140.226562 C 158.542969 141.15625 153.910156 141.152344 146.808594 135.589844 C 142.429688 132.164062 139.40625 126.328125 135.394531 124.472656 C 134.390625 124.011719 133.378906 123.789062 132.375 123.78125 Z M 285.726562 127.742188 C 285.015625 127.757812 284.289062 127.832031 283.589844 127.945312 C 281.390625 128.3125 276.296875 131.671875 274.804688 133.503906 C 272.714844 136.050781 274.109375 138.375 277.121094 137.90625 C 280.125 137.445312 284.289062 133.972656 285.445312 132.8125 C 286.605469 131.652344 287.289062 131.195312 289.609375 133.046875 C 291.925781 134.898438 296.097656 136.984375 300.957031 136.984375 C 303.960938 136.984375 303.960938 135.617188 301.183594 135.128906 C 297.257812 134.433594 293.542969 133.273438 290.777344 129.339844 C 289.910156 128.113281 287.871094 127.683594 285.726562 127.742188 Z M 285.726562 127.742188 " fill-opacity="1" fill-rule="nonzero"/><path fill="#ffffff" d="M 134.316406 131.882812 C 130.609375 140.617188 133.691406 146.867188 139.941406 147.875 C 145.242188 148.726562 149.585938 148.101562 152.601562 143.46875 C 152.601562 143.46875 147.664062 141.542969 146.496094 140.382812 C 145.335938 142.234375 142.644531 143.859375 140.714844 144.164062 C 138.152344 144.574219 137.722656 143.558594 139.40625 142.007812 C 140.480469 140.996094 141.875 138.683594 141.636719 137.140625 C 140.800781 135.976562 136.167969 132.269531 134.316406 131.882812 Z M 334.28125 149.261719 C 332.78125 149.394531 331.515625 150.800781 330.355469 151.648438 C 329.027344 152.628906 327.097656 152.851562 325.496094 152.617188 C 325.101562 156.910156 322.847656 161.160156 320.789062 164.867188 C 319.824219 166.621094 318.6875 168.25 317.65625 169.957031 C 316.335938 172.152344 318.535156 172.175781 320.058594 171.390625 C 324.09375 169.292969 327.148438 165.039062 329.507812 161.28125 C 331.664062 157.863281 334.28125 153.453125 334.28125 149.261719 Z M 315.222656 151.066406 C 313.804688 151.066406 312.421875 151.171875 311.132812 151.351562 C 311.90625 155.535156 310.84375 160.019531 309.613281 164.003906 C 308.335938 168.121094 306.628906 172.136719 304.558594 175.910156 C 303.753906 177.359375 303.914062 178.882812 305.855469 177.992188 C 307.328125 177.316406 308.558594 176.117188 309.652344 174.953125 C 312.464844 171.964844 314.761719 168.441406 316.753906 164.859375 C 318.996094 160.828125 320.929688 156.53125 322.023438 152.042969 C 319.972656 151.355469 317.570312 151.066406 315.222656 151.066406 Z M 306.554688 151.574219 C 306.4375 151.574219 306.285156 151.589844 306.113281 151.605469 C 304.699219 151.734375 303.324219 152.144531 301.996094 152.617188 C 299.355469 153.558594 297.136719 154.941406 294.785156 156.445312 C 293.210938 157.460938 291.589844 158.421875 289.886719 159.203125 C 289.082031 159.574219 288.265625 159.902344 287.417969 160.15625 C 287.566406 160.863281 287.695312 161.589844 287.792969 162.308594 C 288.242188 165.640625 288.242188 169.039062 288.0625 172.390625 C 287.898438 175.328125 287.601562 178.28125 287.011719 181.167969 C 286.785156 182.257812 286.121094 183.789062 286.871094 184.804688 C 287.523438 185.699219 288.898438 185.316406 289.734375 184.945312 C 292.792969 183.582031 295.429688 180.507812 297.554688 178.023438 C 299.601562 175.636719 301.210938 173.003906 302.597656 170.183594 C 304.988281 165.28125 307.378906 159.46875 307.304688 153.914062 C 307.292969 153.347656 307.25 152.777344 307.132812 152.214844 C 307.027344 151.683594 306.910156 151.570312 306.554688 151.574219 Z M 224.632812 163.234375 C 223.863281 163.253906 223.089844 163.371094 222.339844 163.535156 C 218.316406 164.417969 213.863281 166.601562 210.9375 169.539062 C 213.015625 171.347656 214.710938 173.703125 215.238281 176.449219 C 215.429688 177.414062 215.472656 178.410156 215.355469 179.390625 C 215.269531 180.101562 215.078125 181.167969 215.753906 181.6875 C 217.285156 182.863281 220.289062 180.246094 221.296875 179.246094 C 223.113281 177.445312 224.496094 175.207031 225.515625 172.875 C 226.628906 170.332031 227.371094 167.539062 227.316406 164.75 C 227.304688 164.089844 227.433594 163.660156 226.757812 163.464844 C 226.320312 163.339844 225.859375 163.269531 225.40625 163.246094 C 225.148438 163.230469 224.890625 163.226562 224.632812 163.234375 Z M 279.542969 164.207031 C 277.398438 166.363281 274.117188 167.527344 271.285156 168.46875 C 268.464844 169.410156 265.429688 170.273438 262.425781 170.347656 C 264.121094 173.636719 264.195312 177.980469 263.90625 181.589844 C 263.796875 182.894531 263.078125 184.492188 263.496094 185.761719 C 264.097656 187.667969 266.40625 186.648438 267.519531 185.867188 C 274.332031 181.097656 278.503906 172.289062 279.542969 164.207031 Z M 237.550781 165.136719 C 238.675781 168.351562 238.613281 172.082031 238.375 175.4375 C 238.289062 176.785156 238.160156 178.171875 237.816406 179.484375 C 237.519531 180.636719 237.121094 182.050781 238.621094 182.523438 C 241.402344 183.402344 245.359375 180.246094 247.332031 178.640625 C 250.164062 176.355469 252.855469 173.308594 253.628906 169.65625 C 248.125 168.734375 242.839844 166.84375 237.550781 165.136719 Z M 202.367188 173.941406 C 200.714844 175.515625 198.621094 176.679688 196.648438 177.796875 C 194.492188 179.015625 192.273438 180.164062 189.988281 181.125 C 191.519531 183.484375 192.488281 186.667969 192.292969 189.503906 C 192.230469 190.464844 191.382812 191.976562 192.464844 192.640625 C 193.710938 193.414062 195.167969 192.019531 195.992188 191.230469 C 200.390625 187.042969 203.640625 180.085938 202.367188 173.941406 Z M 132.5625 177.671875 C 129.472656 177.691406 125.863281 178.304688 123.441406 180.078125 C 123.921875 184.339844 125.789062 188.886719 129.289062 191.546875 C 130.292969 192.3125 132.839844 193.875 133.824219 192.292969 C 134.351562 191.4375 134.03125 190.152344 134.101562 189.203125 C 134.1875 188.011719 134.410156 186.828125 134.722656 185.671875 C 135.324219 183.433594 136.234375 181.28125 137.351562 179.253906 C 137.671875 178.683594 137.707031 178.644531 137.105469 178.363281 C 136.804688 178.226562 136.492188 178.113281 136.171875 178.03125 C 135.421875 177.828125 134.628906 177.734375 133.851562 177.699219 C 133.4375 177.679688 133.003906 177.667969 132.5625 177.671875 Z M 152.25 181.9375 C 152.464844 184.777344 151.050781 187.863281 149.761719 190.3125 C 149.289062 191.207031 148.164062 192.378906 148.132812 193.402344 C 148.078125 194.703125 149.816406 194.542969 150.640625 194.347656 C 155.597656 193.207031 161.691406 189.679688 163.945312 184.945312 C 160.113281 184.625 155.738281 183.589844 152.25 181.9375 Z M 182.113281 183.789062 C 178.800781 184.992188 174.648438 185.703125 171.121094 185.40625 C 171.496094 188.105469 171.140625 191.023438 170.496094 193.648438 C 170.230469 194.734375 169.660156 195.613281 169.328125 196.644531 C 168.953125 197.839844 170.164062 198.105469 171.066406 197.859375 C 173.972656 197.066406 176.78125 194.175781 178.59375 191.882812 C 180.417969 189.578125 181.910156 186.773438 182.113281 183.789062 Z M 208.714844 189.144531 C 208.074219 189.15625 207.644531 189.601562 207.921875 190.855469 C 208.738281 194.617188 206.453125 199.878906 203.523438 202.207031 C 206.28125 201.46875 209.390625 201.605469 212.203125 201.875 C 215.496094 202.1875 219.140625 202.832031 221.921875 204.753906 C 221.503906 203.078125 220.472656 201.511719 219.550781 200.070312 C 218.328125 198.191406 216.988281 196.398438 215.527344 194.679688 C 214.144531 193.03125 212.664062 191.316406 210.914062 190.03125 C 210.261719 189.550781 209.371094 189.132812 208.714844 189.144531 Z M 239.40625 194.722656 C 238.785156 194.734375 238.277344 195.519531 238.011719 196.539062 C 237.644531 197.859375 236.992188 199.117188 236.261719 200.285156 C 234.480469 203.152344 231.8125 206.054688 228.398438 206.835938 C 230.972656 207.792969 233.515625 208.792969 236.027344 209.886719 C 238.730469 211.058594 241.59375 212.292969 243.910156 214.140625 C 244.628906 210.949219 243.953125 207.363281 243.320312 204.214844 C 242.761719 201.425781 242.195312 198.074219 240.605469 195.636719 C 240.1875 194.980469 239.769531 194.714844 239.40625 194.722656 Z M 125.378906 198.4375 C 123.628906 198.601562 122 201.230469 121.277344 202.433594 C 119.894531 204.765625 118.84375 207.46875 118.703125 210.199219 C 122.496094 209.113281 127.5 208.371094 131.316406 209.734375 C 129.605469 208.199219 128.578125 205.804688 127.886719 203.65625 C 127.585938 202.734375 127.320312 201.769531 127.269531 200.800781 C 127.222656 199.933594 127.097656 198.859375 126.136719 198.523438 C 125.882812 198.4375 125.632812 198.40625 125.378906 198.4375 Z M 182.03125 198.71875 C 181.335938 198.6875 180.875 199.167969 181.078125 200.707031 C 181.335938 202.691406 180.851562 204.859375 180.402344 206.78125 C 179.886719 208.953125 179.210938 211.25 177.988281 213.128906 C 181.820312 210.101562 186.515625 208.480469 190.914062 206.492188 C 189.714844 203.980469 187.160156 202.003906 185.035156 200.308594 C 184.230469 199.664062 182.933594 198.761719 182.03125 198.71875 Z M 141.367188 199.265625 C 141.15625 199.277344 140.90625 199.351562 140.605469 199.492188 C 139.0625 200.242188 138.128906 202.371094 137.476562 203.839844 C 136.507812 205.988281 135.757812 208.40625 135.832031 210.777344 C 137.195312 211.195312 138.503906 211.894531 139.761719 212.550781 C 141.53125 213.472656 143.269531 214.472656 144.929688 215.589844 C 146.023438 216.308594 147.3125 217.113281 148.09375 218.199219 C 148.09375 216.242188 146.859375 214.074219 145.777344 212.515625 C 143.976562 209.90625 142.300781 206.097656 142.3125 202.894531 C 142.324219 201.90625 142.828125 199.160156 141.367188 199.265625 Z M 271.226562 200.898438 C 270.261719 201.027344 269.464844 202.550781 269.132812 203.25 C 267.632812 206.472656 264.660156 208.972656 261.796875 210.960938 C 258.71875 213.085938 255.277344 214.878906 251.671875 215.878906 C 254.921875 217.058594 258.527344 217.371094 261.949219 217.617188 C 263.878906 217.746094 265.796875 217.820312 267.730469 217.855469 C 268.535156 217.863281 269.328125 217.875 270.132812 217.863281 C 270.785156 217.863281 271.847656 218.121094 272.019531 217.433594 C 272.984375 213.332031 272.886719 209.015625 272.757812 204.828125 C 272.726562 203.828125 272.964844 201.328125 271.65625 200.929688 C 271.515625 200.886719 271.363281 200.878906 271.226562 200.898438 Z M 293.75 201.230469 C 292.636719 201.210938 291.714844 203.078125 291.371094 203.828125 C 290.050781 206.632812 287.574219 209.070312 285.375 211.164062 C 282.660156 213.753906 279.59375 216.308594 276.085938 217.734375 C 279.558594 218.207031 283.121094 218.304688 286.617188 218.199219 C 288.367188 218.144531 290.105469 218.027344 291.832031 217.777344 C 292.570312 217.683594 293.300781 217.542969 294.019531 217.371094 C 294.953125 217.144531 294.898438 216.867188 295.039062 215.953125 C 295.585938 212.421875 295.863281 208.726562 295.585938 205.160156 C 295.488281 204 295.402344 202.003906 294.246094 201.371094 C 294.074219 201.273438 293.914062 201.230469 293.75 201.230469 Z M 313.273438 204.183594 C 312.46875 204.3125 312.160156 205.625 311.828125 206.226562 C 311.011719 207.675781 309.875 208.984375 308.714844 210.199219 C 308.585938 211.882812 308.027344 213.570312 307.566406 215.179688 C 309.722656 215.289062 312.554688 215.03125 314.335938 213.6875 C 316 212.464844 315.699219 208.621094 315.324219 206.859375 C 315.140625 205.945312 314.703125 204.464844 313.648438 204.207031 C 313.511719 204.171875 313.394531 204.164062 313.273438 204.183594 Z M 303.074219 204.378906 C 302.945312 204.386719 302.816406 204.421875 302.664062 204.472656 C 301.132812 205.054688 300.058594 207.535156 299.113281 208.8125 C 299.234375 211.347656 298.847656 213.945312 298.535156 216.457031 C 300.402344 216.566406 302.34375 216.222656 304.1875 215.878906 C 304.671875 215.792969 305.132812 213.417969 305.230469 213 C 305.496094 211.796875 305.648438 210.5625 305.636719 209.339844 C 305.617188 208.027344 305.027344 204.140625 303.074219 204.378906 Z M 159.347656 204.6875 C 158.285156 204.722656 157.929688 205.847656 158.15625 206.730469 C 158.691406 208.714844 157.554688 211.292969 156.601562 212.980469 C 155.484375 214.976562 153.585938 215.78125 152.0625 217.371094 C 151.667969 217.777344 151.335938 218.242188 151.109375 218.765625 C 150.765625 219.5625 151.078125 219.734375 151.71875 220.238281 C 152.566406 220.894531 153.542969 221.386719 154.574219 221.6875 C 156.558594 222.277344 158.691406 222.214844 160.710938 221.816406 C 161.644531 221.625 165.535156 220.851562 165.589844 219.710938 C 165.707031 217.476562 165.363281 215.210938 164.785156 213.054688 C 164.183594 210.765625 163.292969 208.46875 161.878906 206.558594 C 161.300781 205.753906 160.453125 204.667969 159.347656 204.6875 Z M 159.347656 204.6875 " fill-opacity="1" fill-rule="nonzero"/></svg>